<svg width="186" height="68" viewBox="0 0 186 68" fill="none" xmlns="http://www.w3.org/2000/svg">
<path d="M35.1728 54.0245L45.7148 47.5184V34.506L35.1728 27.9998L24.6309 34.506V47.5184L35.1728 54.0245Z" fill="#FFD600"/>
<path d="M2.97149 21.0364L13.604 27.3669L24.2366 21.0364L24.2366 8.32142L13.604 1.99088L2.97149 8.32142L2.97149 21.0364Z" stroke="#794094" stroke-width="2"/>
<path d="M13.8851 40.9834L24.5176 47.5058L35.1501 40.9834L35.1501 27.8313L24.5176 21.3089L13.8851 27.8313L13.8851 40.9834Z" stroke="#794094" stroke-width="2"/>
<path d="M35.7122 40.9834L46.3448 47.5058L56.9773 40.9834L56.9773 27.8313L46.3448 21.3089L35.7122 27.8313L35.7122 40.9834Z" stroke="#794094" stroke-width="2"/>
<path d="M23.9715 60.197L34.604 66.5276L45.2366 60.197L45.2366 47.4821L34.604 41.1515L23.9715 47.4821L23.9715 60.197Z" stroke="#794094" stroke-width="2"/>
<path d="M46.6258 21.0364L57.2583 27.3669L67.8909 21.0364L67.8909 8.32142L57.2583 1.99088L46.6258 8.32142L46.6258 21.0364Z" stroke="#794094" stroke-width="2"/>
<path d="M82.8523 28.5881V25.5455H97.1875V28.5881H91.8438V43H88.196V28.5881H82.8523ZM103.111 35.4318V43H99.4801V25.5455H103.009V32.2188H103.162C103.457 31.446 103.935 30.8409 104.594 30.4034C105.253 29.9602 106.08 29.7386 107.074 29.7386C107.983 29.7386 108.776 29.9375 109.452 30.3352C110.134 30.7273 110.662 31.2926 111.037 32.0312C111.418 32.7642 111.605 33.642 111.599 34.6648V43H107.969V35.3125C107.974 34.5057 107.77 33.8778 107.355 33.429C106.946 32.9801 106.372 32.7557 105.634 32.7557C105.139 32.7557 104.702 32.8608 104.321 33.071C103.946 33.2812 103.651 33.5881 103.435 33.9915C103.224 34.3892 103.116 34.8693 103.111 35.4318ZM120.423 43.2557C119.076 43.2557 117.917 42.983 116.945 42.4375C115.979 41.8864 115.235 41.108 114.712 40.1023C114.19 39.0909 113.928 37.8949 113.928 36.5142C113.928 35.1676 114.19 33.9858 114.712 32.9688C115.235 31.9517 115.971 31.1591 116.92 30.5909C117.874 30.0227 118.994 29.7386 120.278 29.7386C121.141 29.7386 121.945 29.8778 122.69 30.1562C123.44 30.429 124.093 30.8409 124.65 31.392C125.212 31.9432 125.65 32.6364 125.962 33.4716C126.275 34.3011 126.431 35.2727 126.431 36.3864V37.3835H115.377V35.1335H123.013C123.013 34.6108 122.9 34.1477 122.673 33.7443C122.445 33.3409 122.13 33.0256 121.727 32.7983C121.329 32.5653 120.866 32.4489 120.337 32.4489C119.786 32.4489 119.298 32.5767 118.871 32.8324C118.451 33.0824 118.121 33.4205 117.883 33.8466C117.644 34.267 117.522 34.7358 117.516 35.2528V37.392C117.516 38.0398 117.636 38.5994 117.874 39.071C118.119 39.5426 118.462 39.9062 118.906 40.1619C119.349 40.4176 119.874 40.5455 120.482 40.5455C120.886 40.5455 121.255 40.4886 121.59 40.375C121.925 40.2614 122.212 40.0909 122.451 39.8636C122.69 39.6364 122.871 39.358 122.996 39.0284L126.354 39.25C126.184 40.0568 125.835 40.7614 125.306 41.3636C124.783 41.9602 124.107 42.4261 123.278 42.7614C122.454 43.0909 121.502 43.2557 120.423 43.2557ZM134.423 43V25.5455H138.114V32.7472H145.605V25.5455H149.287V43H145.605V35.7898H138.114V43H134.423ZM152.261 43V29.9091H155.892V43H152.261ZM154.085 28.2216C153.545 28.2216 153.082 28.0426 152.696 27.6847C152.315 27.321 152.125 26.8864 152.125 26.3807C152.125 25.8807 152.315 25.4517 152.696 25.0938C153.082 24.7301 153.545 24.5483 154.085 24.5483C154.625 24.5483 155.085 24.7301 155.466 25.0938C155.852 25.4517 156.045 25.8807 156.045 26.3807C156.045 26.8864 155.852 27.321 155.466 27.6847C155.085 28.0426 154.625 28.2216 154.085 28.2216ZM171.005 29.9091L166.428 43H162.337L157.761 29.9091H161.596L164.315 39.2756H164.451L167.161 29.9091H171.005ZM178.407 43.2557C177.06 43.2557 175.901 42.983 174.93 42.4375C173.964 41.8864 173.219 41.108 172.697 40.1023C172.174 39.0909 171.913 37.8949 171.913 36.5142C171.913 35.1676 172.174 33.9858 172.697 32.9688C173.219 31.9517 173.955 31.1591 174.904 30.5909C175.859 30.0227 176.978 29.7386 178.262 29.7386C179.126 29.7386 179.93 29.8778 180.674 30.1562C181.424 30.429 182.077 30.8409 182.634 31.392C183.197 31.9432 183.634 32.6364 183.947 33.4716C184.259 34.3011 184.415 35.2727 184.415 36.3864V37.3835H173.362V35.1335H180.998C180.998 34.6108 180.884 34.1477 180.657 33.7443C180.43 33.3409 180.114 33.0256 179.711 32.7983C179.313 32.5653 178.85 32.4489 178.322 32.4489C177.771 32.4489 177.282 32.5767 176.856 32.8324C176.435 33.0824 176.106 33.4205 175.867 33.8466C175.629 34.267 175.506 34.7358 175.501 35.2528V37.392C175.501 38.0398 175.62 38.5994 175.859 39.071C176.103 39.5426 176.447 39.9062 176.89 40.1619C177.333 40.4176 177.859 40.5455 178.467 40.5455C178.87 40.5455 179.239 40.4886 179.575 40.375C179.91 40.2614 180.197 40.0909 180.435 39.8636C180.674 39.6364 180.856 39.358 180.981 39.0284L184.339 39.25C184.168 40.0568 183.819 40.7614 183.29 41.3636C182.768 41.9602 182.092 42.4261 181.262 42.7614C180.438 43.0909 179.487 43.2557 178.407 43.2557Z" fill="#282828"/>
</svg>
