<svg width="184" height="71" viewBox="0 0 184 71" fill="none" xmlns="http://www.w3.org/2000/svg">
<path d="M1.67773 37.1728L8.18391 47.7148L21.1963 47.7148L27.7024 37.1728L21.1963 26.6309L8.18391 26.6309L1.67773 37.1728Z" fill="#FFD600"/>
<path d="M46.6545 2.79956L40.324 13.4321L46.6545 24.0646L59.3695 24.0646L65.7 13.4321L59.3695 2.79956L46.6545 2.79956Z" stroke="#794094" stroke-width="2"/>
<path d="M26.7072 13.7131L20.1849 24.3457L26.7072 34.9782L39.8594 34.9782L46.3818 24.3457L39.8594 13.7131L26.7072 13.7131Z" stroke="#794094" stroke-width="2"/>
<path d="M26.7072 35.5403L20.1849 46.1728L26.7072 56.8054L39.8594 56.8054L46.3818 46.1728L39.8594 35.5403L26.7072 35.5403Z" stroke="#794094" stroke-width="2"/>
<path d="M7.49436 23.7996L1.16383 34.4321L7.49436 45.0646L20.2093 45.0646L26.5399 34.4321L20.2093 23.7996L7.49436 23.7996Z" stroke="#794094" stroke-width="2"/>
<path d="M46.6545 46.4539L40.324 57.0864L46.6545 67.7189L59.3695 67.7189L65.7 57.0864L59.3695 46.4539L46.6545 46.4539Z" stroke="#794094" stroke-width="2"/>
<path d="M80.8523 29.5881V26.5455H95.1875V29.5881H89.8438V44H86.196V29.5881H80.8523ZM101.111 36.4318V44H97.4801V26.5455H101.009V33.2188H101.162C101.457 32.446 101.935 31.8409 102.594 31.4034C103.253 30.9602 104.08 30.7386 105.074 30.7386C105.983 30.7386 106.776 30.9375 107.452 31.3352C108.134 31.7273 108.662 32.2926 109.037 33.0312C109.418 33.7642 109.605 34.642 109.599 35.6648V44H105.969V36.3125C105.974 35.5057 105.77 34.8778 105.355 34.429C104.946 33.9801 104.372 33.7557 103.634 33.7557C103.139 33.7557 102.702 33.8608 102.321 34.071C101.946 34.2812 101.651 34.5881 101.435 34.9915C101.224 35.3892 101.116 35.8693 101.111 36.4318ZM118.423 44.2557C117.076 44.2557 115.917 43.983 114.945 43.4375C113.979 42.8864 113.235 42.108 112.712 41.1023C112.19 40.0909 111.928 38.8949 111.928 37.5142C111.928 36.1676 112.19 34.9858 112.712 33.9688C113.235 32.9517 113.971 32.1591 114.92 31.5909C115.874 31.0227 116.994 30.7386 118.278 30.7386C119.141 30.7386 119.945 30.8778 120.69 31.1562C121.44 31.429 122.093 31.8409 122.65 32.392C123.212 32.9432 123.65 33.6364 123.962 34.4716C124.275 35.3011 124.431 36.2727 124.431 37.3864V38.3835H113.377V36.1335H121.013C121.013 35.6108 120.9 35.1477 120.673 34.7443C120.445 34.3409 120.13 34.0256 119.727 33.7983C119.329 33.5653 118.866 33.4489 118.337 33.4489C117.786 33.4489 117.298 33.5767 116.871 33.8324C116.451 34.0824 116.121 34.4205 115.883 34.8466C115.644 35.267 115.522 35.7358 115.516 36.2528V38.392C115.516 39.0398 115.636 39.5994 115.874 40.071C116.119 40.5426 116.462 40.9062 116.906 41.1619C117.349 41.4176 117.874 41.5455 118.482 41.5455C118.886 41.5455 119.255 41.4886 119.59 41.375C119.925 41.2614 120.212 41.0909 120.451 40.8636C120.69 40.6364 120.871 40.358 120.996 40.0284L124.354 40.25C124.184 41.0568 123.835 41.7614 123.306 42.3636C122.783 42.9602 122.107 43.4261 121.278 43.7614C120.454 44.0909 119.502 44.2557 118.423 44.2557ZM132.423 44V26.5455H136.114V33.7472H143.605V26.5455H147.287V44H143.605V36.7898H136.114V44H132.423ZM150.261 44V30.9091H153.892V44H150.261ZM152.085 29.2216C151.545 29.2216 151.082 29.0426 150.696 28.6847C150.315 28.321 150.125 27.8864 150.125 27.3807C150.125 26.8807 150.315 26.4517 150.696 26.0938C151.082 25.7301 151.545 25.5483 152.085 25.5483C152.625 25.5483 153.085 25.7301 153.466 26.0938C153.852 26.4517 154.045 26.8807 154.045 27.3807C154.045 27.8864 153.852 28.321 153.466 28.6847C153.085 29.0426 152.625 29.2216 152.085 29.2216ZM169.005 30.9091L164.428 44H160.337L155.761 30.9091H159.596L162.315 40.2756H162.451L165.161 30.9091H169.005ZM176.407 44.2557C175.06 44.2557 173.901 43.983 172.93 43.4375C171.964 42.8864 171.219 42.108 170.697 41.1023C170.174 40.0909 169.913 38.8949 169.913 37.5142C169.913 36.1676 170.174 34.9858 170.697 33.9688C171.219 32.9517 171.955 32.1591 172.904 31.5909C173.859 31.0227 174.978 30.7386 176.262 30.7386C177.126 30.7386 177.93 30.8778 178.674 31.1562C179.424 31.429 180.077 31.8409 180.634 32.392C181.197 32.9432 181.634 33.6364 181.947 34.4716C182.259 35.3011 182.415 36.2727 182.415 37.3864V38.3835H171.362V36.1335H178.998C178.998 35.6108 178.884 35.1477 178.657 34.7443C178.43 34.3409 178.114 34.0256 177.711 33.7983C177.313 33.5653 176.85 33.4489 176.322 33.4489C175.771 33.4489 175.282 33.5767 174.856 33.8324C174.435 34.0824 174.106 34.4205 173.867 34.8466C173.629 35.267 173.506 35.7358 173.501 36.2528V38.392C173.501 39.0398 173.62 39.5994 173.859 40.071C174.103 40.5426 174.447 40.9062 174.89 41.1619C175.333 41.4176 175.859 41.5455 176.467 41.5455C176.87 41.5455 177.239 41.4886 177.575 41.375C177.91 41.2614 178.197 41.0909 178.435 40.8636C178.674 40.6364 178.856 40.358 178.981 40.0284L182.339 40.25C182.168 41.0568 181.819 41.7614 181.29 42.3636C180.768 42.9602 180.092 43.4261 179.262 43.7614C178.438 44.0909 177.487 44.2557 176.407 44.2557Z" fill="#282828"/>
</svg>
